<?xml version="1.0" encoding="UTF-8" standalone="no"?>
<svg width="500" height="500" viewBox="0 0 500 500" xmlns="http://www.w3.org/2000/svg">
    <!-- Simulation-Focused Logo with Warehouse and Horizontal Ceiling-Mounted Fans -->
    <defs>
        <linearGradient id="blueGradient" x1="0%" y1="0%" x2="100%" y2="100%">
            <stop offset="0%" style="stop-color:#1a5276;stop-opacity:1" />
            <stop offset="100%" style="stop-color:#3498db;stop-opacity:1" />
        </linearGradient>
        <linearGradient id="wallGradient" x1="0%" y1="0%" x2="0%" y2="100%">
            <stop offset="0%" style="stop-color:#ecf0f1;stop-opacity:1" />
            <stop offset="100%" style="stop-color:#bdc3c7;stop-opacity:1" />
        </linearGradient>
        <linearGradient id="floorGradient" x1="0%" y1="0%" x2="100%" y2="0%">
            <stop offset="0%" style="stop-color:#95a5a6;stop-opacity:1" />
            <stop offset="100%" style="stop-color:#7f8c8d;stop-opacity:1" />
        </linearGradient>
        <linearGradient id="roofGradient" x1="0%" y1="0%" x2="100%" y2="0%">
            <stop offset="0%" style="stop-color:#34495e;stop-opacity:1" />
            <stop offset="100%" style="stop-color:#2c3e50;stop-opacity:1" />
        </linearGradient>
    </defs>
    
    <!-- Warehouse Structure - Side View -->
    <g transform="translate(100, 150)">
        <!-- Warehouse Floor -->
        <polygon points="0,150 300,150 300,170 0,170" fill="url(#floorGradient)" stroke="#2c3e50" stroke-width="2"/>
        
        <!-- Warehouse Back Wall -->
        <rect x="0" y="50" width="300" height="100" fill="url(#wallGradient)" stroke="#2c3e50" stroke-width="2"/>
        
        <!-- Warehouse Roof -->
        <polygon points="0,50 300,50 250,0 50,0" fill="url(#roofGradient)" stroke="#2c3e50" stroke-width="2"/>
        
        <!-- Fan 1 - Left Side (Horizontal, Ceiling-Mounted) -->
        <g transform="translate(75, 60)">
            <!-- Mounting Rod -->
            <rect x="-2" y="0" width="4" height="20" fill="#7f8c8d" stroke="#2c3e50" stroke-width="1"/>
            
            <!-- Fan Housing (Side View) -->
            <ellipse cx="0" cy="20" rx="15" ry="5" fill="#34495e" stroke="#2c3e50" stroke-width="1"/>
            
            <!-- Fan Blades (Horizontal Orientation) -->
            <g transform="translate(0, 20)">
                <!-- Fan blade hints from side view -->
                <line x1="-12" y1="0" x2="12" y2="0" stroke="#3498db" stroke-width="2"/>
                <line x1="-10" y1="-2" x2="10" y2="-2" stroke="#3498db" stroke-width="1"/>
                <line x1="-10" y1="2" x2="10" y2="2" stroke="#3498db" stroke-width="1"/>
            </g>
            
            <!-- Downward Airflow Visualization -->
            <path d="M-15,25 C-15,80 -5,120 0,150" fill="none" stroke="#27ae60" stroke-width="2" stroke-dasharray="4,2" opacity="0.7"/>
            <path d="M0,25 C0,90 0,120 0,150" fill="none" stroke="#27ae60" stroke-width="2" stroke-dasharray="4,2" opacity="0.7"/>
            <path d="M15,25 C15,80 5,120 0,150" fill="none" stroke="#27ae60" stroke-width="2" stroke-dasharray="4,2" opacity="0.7"/>
        </g>
        
        <!-- Fan 2 - Right Side (Horizontal, Ceiling-Mounted) -->
        <g transform="translate(225, 60)">
            <!-- Mounting Rod -->
            <rect x="-2" y="0" width="4" height="20" fill="#7f8c8d" stroke="#2c3e50" stroke-width="1"/>
            
            <!-- Fan Housing (Side View) -->
            <ellipse cx="0" cy="20" rx="15" ry="5" fill="#34495e" stroke="#2c3e50" stroke-width="1"/>
            
            <!-- Fan Blades (Horizontal Orientation) -->
            <g transform="translate(0, 20)">
                <!-- Fan blade hints from side view -->
                <line x1="-12" y1="0" x2="12" y2="0" stroke="#3498db" stroke-width="2"/>
                <line x1="-10" y1="-2" x2="10" y2="-2" stroke="#3498db" stroke-width="1"/>
                <line x1="-10" y1="2" x2="10" y2="2" stroke="#3498db" stroke-width="1"/>
            </g>
            
            <!-- Downward Airflow Visualization -->
            <path d="M-15,25 C-15,80 -5,120 0,150" fill="none" stroke="#27ae60" stroke-width="2" stroke-dasharray="4,2" opacity="0.7"/>
            <path d="M0,25 C0,90 0,120 0,150" fill="none" stroke="#27ae60" stroke-width="2" stroke-dasharray="4,2" opacity="0.7"/>
            <path d="M15,25 C15,80 5,120 0,150" fill="none" stroke="#27ae60" stroke-width="2" stroke-dasharray="4,2" opacity="0.7"/>
        </g>
        
        <!-- Floor Airflow Circulation -->
        <path d="M0,150 C100,140 200,140 300,150" fill="none" stroke="#27ae60" stroke-width="2" stroke-dasharray="4,2" opacity="0.5"/>
    </g>
    
    <!-- Company Name -->
    <g>
        <text x="250" y="350" font-family="Arial, sans-serif" font-size="36" font-weight="bold" text-anchor="middle" fill="#2c3e50">INDUSTRIAL FAN</text>
        <text x="250" y="400" font-family="Arial, sans-serif" font-size="48" font-weight="bold" text-anchor="middle" fill="#3498db">INSIDER</text>
    </g>
</svg>
